<?xml version="1.0" standalone="no"?>
<!DOCTYPE svg PUBLIC "-//W3C//DTD SVG 20010904//EN"
 "http://www.w3.org/TR/2001/REC-SVG-20010904/DTD/svg10.dtd">
<svg version="1.0" xmlns="http://www.w3.org/2000/svg"
 width="1280.000000pt" height="1263.000000pt" viewBox="0 0 1280.000000 1263.000000"
 preserveAspectRatio="xMidYMid meet">
<metadata>
Created by potrace 1.15, written by Peter Selinger 2001-2017
</metadata>
<g transform="translate(0.000000,1263.000000) scale(0.100000,-0.100000)"
fill="#00bcd4" stroke="none">
<path d="M6227 12620 c-258 -65 -518 -424 -732 -1008 l-38 -104 -58 7 c-145
17 -314 -64 -411 -196 -115 -158 -130 -338 -42 -510 34 -68 122 -159 193 -199
33 -19 61 -40 61 -47 0 -6 -16 -91 -35 -188 -37 -188 -102 -579 -131 -785 -10
-69 -19 -127 -20 -128 -1 -2 -65 43 -141 99 -1165 871 -2100 1344 -2648 1341
-180 -2 -288 -37 -374 -123 -87 -88 -121 -194 -122 -379 0 -129 12 -212 55
-376 54 -203 184 -519 322 -781 l75 -142 -42 -53 c-152 -191 -152 -424 -1
-614 47 -60 155 -134 229 -158 71 -24 186 -22 256 3 l56 19 132 -186 c73 -103
186 -258 251 -344 65 -87 117 -158 114 -158 -2 0 -82 -11 -178 -25 -1244 -181
-2155 -448 -2646 -777 -43 -28 -121 -95 -174 -148 -80 -79 -104 -110 -135
-176 -35 -73 -38 -85 -38 -169 0 -84 3 -96 38 -169 31 -66 55 -97 135 -176
104 -104 192 -168 351 -254 193 -106 506 -232 771 -311 l125 -37 0 -107 c0
-102 1 -109 37 -184 50 -105 137 -196 233 -242 172 -85 355 -54 500 86 62 59
135 175 135 214 0 20 -10 21 250 -24 145 -25 577 -91 595 -91 3 0 -41 -62 -98
-137 -487 -647 -896 -1303 -1107 -1776 -169 -382 -243 -650 -241 -882 1 -130
15 -204 55 -283 108 -213 387 -269 805 -162 241 61 589 209 916 389 94 52 154
80 162 74 6 -4 39 -29 72 -55 188 -144 411 -127 584 43 135 134 188 337 128
493 -7 16 -8 32 -4 36 4 3 55 40 113 80 58 41 183 132 278 203 96 71 175 127
176 125 1 -1 10 -59 20 -128 165 -1182 430 -2118 741 -2619 121 -194 245 -319
381 -383 62 -30 78 -33 159 -33 80 0 97 3 158 32 37 18 94 53 127 78 197 151
410 527 571 1004 l44 131 62 0 c172 0 338 114 422 290 35 73 36 78 36 190 0
96 -4 124 -23 172 -43 106 -122 194 -245 273 -14 9 -13 23 9 135 34 170 87
490 115 690 13 91 24 167 26 169 1 2 87 -59 190 -136 1003 -745 1798 -1173
2395 -1289 106 -21 302 -21 381 0 271 73 371 303 303 693 -51 285 -228 722
-459 1133 l-65 115 62 65 c108 113 146 203 146 343 0 233 -170 435 -401 478
-84 15 -167 1 -254 -44 -33 -18 -63 -33 -66 -35 -3 -1 -63 75 -132 170 -69 95
-152 209 -185 253 -33 44 -59 81 -58 82 1 2 101 17 222 33 1300 181 2247 454
2752 792 43 28 121 95 174 148 80 79 104 110 135 176 35 73 38 85 38 169 0 84
-3 96 -38 169 -31 65 -55 97 -135 177 -226 225 -621 417 -1238 599 l-71 21 0
78 c0 183 -108 353 -277 436 -124 62 -254 63 -376 3 -89 -43 -186 -141 -230
-233 -19 -38 -35 -71 -35 -73 -1 -1 -83 11 -181 28 -98 17 -305 49 -458 71
-154 22 -281 41 -282 42 -2 1 31 47 73 102 1034 1373 1529 2486 1307 2940 -76
155 -215 225 -449 227 -353 2 -846 -185 -1503 -569 l-143 -84 -61 56 c-167
154 -378 176 -552 56 -194 -134 -273 -371 -192 -573 14 -34 22 -65 18 -68 -53
-43 -353 -262 -355 -259 -2 2 -13 78 -26 169 -56 403 -152 910 -236 1250 -273
1100 -637 1725 -1017 1745 -40 3 -90 0 -111 -5z m182 -79 c67 -21 168 -88 224
-150 382 -423 691 -1392 892 -2801 l27 -185 -33 -25 c-232 -177 -647 -520
-972 -803 -115 -100 -214 -186 -221 -191 -9 -6 -65 37 -182 140 -313 274 -793
672 -1032 854 l-33 25 30 207 c42 285 74 477 122 724 l41 212 98 4 c88 3 104
7 172 40 99 50 185 138 235 244 33 69 38 90 41 170 5 105 -12 177 -60 262 -38
66 -110 141 -177 182 -28 17 -51 35 -51 40 0 35 128 346 207 504 155 310 324
497 498 552 57 18 104 17 174 -5z m-3994 -1725 c448 -79 1094 -395 1830 -894
366 -248 755 -537 755 -561 0 -9 -13 -134 -29 -276 -44 -384 -73 -716 -107
-1217 l-6 -97 -42 -5 c-22 -3 -149 -12 -281 -21 -359 -23 -1095 -95 -1242
-120 -31 -5 -34 -2 -162 169 -72 96 -189 256 -260 356 l-128 182 66 67 c198
199 199 484 2 682 -148 148 -330 183 -509 97 -52 -24 -66 -28 -73 -17 -34 53
-218 440 -265 558 -124 314 -169 512 -162 716 4 115 8 137 32 190 45 99 130
170 233 194 60 14 260 12 348 -3z m8208 -18 c71 -33 102 -57 137 -106 42 -58
61 -119 70 -217 45 -511 -416 -1451 -1288 -2625 -79 -107 -148 -198 -151 -203
-4 -4 -83 2 -177 13 -333 39 -838 81 -1292 109 -78 4 -144 10 -146 12 -2 2
-13 146 -25 319 -25 360 -59 725 -97 1049 -23 192 -24 226 -12 235 96 73 329
246 349 260 l27 17 56 -55 c148 -145 357 -176 526 -78 60 34 142 113 180 171
74 116 95 275 51 396 -12 33 -24 67 -27 76 -6 19 58 61 296 194 398 222 779
381 1064 441 93 20 135 23 256 21 133 -2 150 -5 203 -29z m-5323 -1658 c246
-196 506 -414 769 -643 187 -164 193 -170 175 -187 -11 -10 -83 -76 -160 -147
-78 -70 -197 -180 -265 -244 l-124 -116 -335 -12 c-184 -6 -357 -15 -384 -18
l-48 -6 6 79 c3 43 13 178 22 299 20 286 48 604 80 885 31 278 33 293 48 282
6 -5 103 -82 216 -172z m2299 -140 c44 -415 57 -564 97 -1134 l6 -88 -103 6
c-57 4 -231 11 -387 16 l-282 9 -208 193 c-114 106 -240 223 -280 259 l-73 66
193 169 c250 219 510 436 778 651 176 142 216 169 222 155 4 -9 21 -145 37
-302z m-1055 -931 c98 -90 201 -185 230 -211 l51 -47 -508 -3 c-279 -2 -507
-1 -507 1 0 5 148 144 343 322 l162 148 25 -23 c14 -12 105 -96 204 -187z
m778 -747 l418 -418 0 -589 0 -589 -418 -418 -418 -418 -480 0 c-263 0 -531 3
-594 7 l-115 6 -406 406 -406 406 -6 55 c-9 71 -9 1018 0 1090 l6 55 407 407
406 407 80 4 c43 1 310 4 593 5 l514 2 419 -418z m-1712 405 c0 -1 -160 -162
-355 -357 l-355 -356 0 41 c0 80 20 561 26 602 l5 41 102 7 c194 12 577 27
577 22z m2005 -16 l90 -6 12 -265 c7 -146 12 -301 10 -345 l-2 -80 -357 359
-356 359 256 -8 c142 -4 298 -10 347 -14z m-2774 -321 c-6 -129 -11 -284 -11
-344 l0 -109 -128 -136 c-70 -75 -179 -192 -241 -261 -63 -69 -124 -135 -136
-148 l-22 -24 -165 189 c-307 351 -818 972 -818 995 0 4 6 8 13 8 7 0 109 11
227 25 338 38 831 82 1175 103 l110 7 3 -35 c2 -19 -1 -141 -7 -270z m3274
295 c431 -29 1199 -100 1214 -111 14 -12 -947 -1167 -997 -1198 -4 -3 -41 32
-81 77 -41 45 -157 171 -259 281 l-186 199 -7 221 c-4 121 -11 294 -14 384
l-7 162 58 0 c33 0 158 -7 279 -15z m1628 -165 c155 -22 360 -54 456 -70 95
-17 175 -30 177 -30 2 0 4 -26 4 -58 0 -129 49 -241 151 -345 146 -147 331
-181 509 -94 86 42 177 134 220 220 18 37 35 67 37 67 11 0 280 -83 372 -115
427 -149 729 -311 903 -485 113 -112 153 -190 153 -295 0 -105 -40 -183 -153
-295 -337 -337 -1162 -631 -2346 -835 -213 -37 -749 -115 -789 -115 -18 0 -46
29 -123 127 -223 285 -505 624 -786 945 -82 93 -148 170 -148 173 0 3 66 80
148 173 278 317 520 608 762 915 96 122 130 157 148 157 12 0 150 -18 305 -40z
m-6413 -102 c208 -267 491 -607 779 -936 101 -116 141 -169 135 -178 -5 -7
-91 -106 -191 -221 -284 -326 -692 -821 -800 -968 l-21 -30 -259 37 c-142 21
-340 52 -439 69 l-182 32 -4 83 c-4 73 -10 94 -46 167 -95 192 -292 307 -477
277 -135 -22 -278 -126 -344 -250 -39 -72 -20 -72 -236 -3 -323 104 -635 243
-830 370 -137 89 -264 218 -307 309 -46 98 -46 180 0 278 87 184 385 392 795
555 537 214 1175 366 2167 514 171 26 151 34 260 -105z m1490 -1104 l0 -506
-88 93 c-49 52 -154 166 -235 254 l-146 159 36 41 c20 22 113 123 207 224 94
101 181 197 194 212 13 16 25 29 28 29 2 0 4 -228 4 -506z m3323 151 l137
-149 -23 -26 c-13 -14 -97 -105 -188 -204 -90 -98 -185 -201 -211 -230 l-47
-51 -1 510 0 509 98 -104 c54 -58 160 -172 235 -255z m-3613 -450 c86 -93 188
-204 227 -245 l70 -75 6 -225 c4 -124 10 -295 13 -380 l7 -156 -114 8 c-369
23 -839 64 -1179 103 -118 14 -220 25 -227 25 -7 0 -13 4 -13 8 0 22 476 602
793 966 l190 219 35 -39 c19 -21 106 -115 192 -209z m3956 67 c276 -313 854
-1017 843 -1026 -8 -6 -621 -67 -864 -86 -253 -20 -571 -40 -629 -40 l-58 0 7
163 c3 89 10 262 14 383 l7 221 186 199 c102 110 218 236 259 281 40 45 77 80
81 77 4 -3 73 -80 154 -172z m-2880 -1179 c-4 -4 -423 13 -578 23 l-97 6 -5
42 c-6 40 -26 521 -26 601 l0 41 355 -355 c195 -195 353 -357 351 -358z m2111
287 l-12 -265 -90 -6 c-49 -4 -205 -10 -347 -14 l-256 -8 356 359 357 359 2
-80 c2 -44 -3 -199 -10 -345z m-4177 -215 c303 -34 714 -72 995 -90 132 -9
259 -18 281 -21 l42 -5 6 -97 c34 -501 63 -833 107 -1217 16 -142 29 -267 29
-276 0 -16 -200 -170 -484 -374 -100 -71 -110 -76 -119 -59 -6 11 -34 44 -63
74 -186 195 -454 199 -644 10 -90 -91 -150 -227 -150 -345 0 -63 22 -150 54
-213 l25 -48 -112 -63 c-254 -142 -563 -283 -777 -354 -231 -77 -368 -101
-542 -95 -108 4 -131 8 -184 32 -76 34 -135 93 -170 171 -24 53 -28 75 -32
190 -4 105 0 152 17 242 109 571 554 1383 1313 2401 127 170 130 173 161 167
18 -3 129 -16 247 -30z m5981 -167 c75 -101 166 -225 203 -276 l67 -93 -35
-39 c-127 -141 -151 -361 -58 -534 41 -79 145 -177 227 -216 93 -45 217 -53
310 -22 33 12 63 18 67 14 17 -19 161 -287 234 -437 219 -454 318 -806 294
-1051 -14 -141 -53 -223 -137 -283 -72 -52 -117 -64 -263 -69 -116 -3 -152 0
-260 22 -437 89 -1040 385 -1738 854 -336 225 -802 567 -802 588 0 7 11 107
25 221 36 304 71 685 96 1043 12 173 23 317 25 319 2 3 102 10 222 17 396 24
985 75 1242 108 58 7 114 14 125 15 15 1 54 -44 156 -181z m-4156 31 l330 -12
124 -116 c68 -64 187 -174 265 -244 77 -71 149 -137 160 -147 18 -17 12 -23
-175 -187 -264 -230 -522 -446 -779 -651 -213 -171 -215 -172 -222 -145 -18
76 -85 759 -112 1148 -9 121 -19 256 -22 299 l-6 79 53 -6 c30 -3 203 -12 384
-18z m2331 -76 c-25 -349 -38 -530 -51 -678 -25 -275 -75 -739 -83 -757 -6
-14 -46 13 -222 155 -268 215 -528 432 -778 651 l-193 169 73 66 c40 36 166
153 280 259 l208 193 302 10 c167 5 319 11 338 12 19 2 57 4 84 5 l48 2 -6
-87z m-971 -36 c-55 -52 -169 -157 -254 -235 l-154 -141 -81 72 c-44 40 -145
133 -224 207 -80 74 -157 145 -173 158 -16 13 -29 26 -29 30 0 4 228 6 507 4
l507 -2 -99 -93z m-242 -619 c325 -284 627 -536 897 -748 80 -62 151 -119 158
-125 11 -10 9 -44 -13 -196 -23 -168 -98 -616 -126 -765 l-12 -60 -101 0 c-82
0 -112 -4 -158 -23 -125 -49 -245 -172 -290 -298 -32 -87 -35 -205 -10 -290
41 -132 142 -252 263 -309 l57 -27 -40 -116 c-122 -354 -253 -623 -399 -817
-105 -140 -203 -218 -313 -250 -75 -21 -139 -14 -220 25 -438 208 -829 1275
-1066 2906 l-31 210 33 25 c249 190 745 601 1028 852 91 81 168 147 173 147 4
1 81 -63 170 -141z"/>
<path d="M6115 7056 c-143 -34 -247 -89 -351 -189 -156 -148 -236 -334 -236
-552 0 -218 80 -405 236 -553 84 -80 174 -133 284 -170 68 -23 93 -26 217 -26
124 0 149 3 217 26 225 75 403 250 479 471 139 404 -77 844 -479 974 -96 32
-274 40 -367 19z"/>
</g>
</svg>
